<?xml version="1.0" encoding="UTF-8"?><svg xmlns="http://www.w3.org/2000/svg" xmlns:xlink="http://www.w3.org/1999/xlink" viewBox="0 0 350 350"><defs><style>.cls-1{clip-path:url(#clippath);}.cls-2{fill:none;}.cls-2,.cls-3,.cls-4,.cls-5,.cls-6,.cls-7,.cls-8,.cls-9,.cls-10,.cls-11,.cls-12,.cls-13,.cls-14,.cls-15,.cls-16,.cls-17,.cls-18,.cls-19,.cls-20,.cls-21,.cls-22,.cls-23,.cls-24,.cls-25,.cls-26,.cls-27,.cls-28,.cls-29,.cls-30,.cls-31,.cls-32,.cls-33{stroke-width:0px;}.cls-34{clip-path:url(#clippath-1);}.cls-3{opacity:0;}.cls-3,.cls-4,.cls-5,.cls-6,.cls-7,.cls-8,.cls-9,.cls-10,.cls-11,.cls-12{fill-rule:evenodd;}.cls-3,.cls-14{fill:#2b2b2b;}.cls-4{fill:#474747;}.cls-5,.cls-13{fill:#4f5253;}.cls-6,.cls-16{fill:#54a984;}.cls-7{fill:#99c87e;}.cls-8{fill:#6f7173;}.cls-9{fill:#709653;}.cls-10,.cls-23{fill:#c7c7c6;}.cls-11{fill:#b8d487;}.cls-12{fill:#9c9c9c;}.cls-15{fill:#277885;}.cls-17{fill:#888;}.cls-18{fill:#846651;}.cls-19{fill:#35785d;}.cls-20{fill:#368d8f;}.cls-21{fill:#1c7678;}.cls-22{fill:#3f886f;}.cls-24{fill:#e1c3af;}.cls-25{fill:#d6d6d5;}.cls-26{fill:#bc917b;}.cls-27{fill:#bdbdbd;}.cls-28{fill:#d8b69e;}.cls-29{fill:#737373;}.cls-30{fill:#31889f;}.cls-31{fill:#969a9b;}.cls-32{fill:#72c4c5;}.cls-33{fill:#72c29f;}</style><clipPath id="clippath"><rect class="cls-2" x=".5" y=".2" width="350" height="350"/></clipPath><clipPath id="clippath-1"><rect class="cls-2" x="-.5" y="-501" width="350" height="350"/></clipPath></defs><g class="cls-1"><polygon class="cls-28" points="241.2 47.4 194.8 56.9 167.9 68.6 144.9 60.8 111.8 60.8 120.1 77.9 134.3 85 125.9 106 128.2 127.1 136.1 153 150.7 173.8 144.3 174.5 139.1 179.7 135.2 168.1 125.3 149.8 107.9 153.6 96.8 160.6 113.8 189.7 126.1 204.6 126.6 215.4 134.8 229.1 139.9 235.3 139.2 242 160.5 255.2 193.7 268.5 202.9 259.1 207.2 247.8 207.2 226.8 269.5 213.5 259.1 140.9 261.9 126.9 256.7 102.2 250.9 95.2 241.2 47.4"/><polygon class="cls-26" points="139.8 64.7 154.4 114.1 164.1 159.7 181.5 231.8 207.2 226.8 204.9 236.8 207.2 247.8 193.7 268.5 139.2 242 125.8 214.2 117.2 189.7 139.1 179.7 133.6 167.9 132.1 157.1 141.1 160.4 128.2 127.1 128.3 107.3 134.3 85 122 75.5 111.8 60.8 129.7 61.8 139.8 64.7"/><polygon class="cls-18" points="117.2 189.7 139.1 179.7 125.8 214.2 117.7 200 117.2 189.7"/><polygon class="cls-18" points="207.2 226.8 170.7 233.8 193.7 268.5 203.8 258.8 207.2 247.8 207.2 226.8"/><polygon class="cls-26" points="172.3 147 174.3 126.6 194.1 121.8 203.7 142.9 164.1 159.7 205.3 155.5 213.2 162.5 201.9 104.9 167.8 123 164 135.7 172.3 147"/><polygon class="cls-26" points="236.5 133 236.9 115.2 254.9 109.4 259.9 112.1 259.1 135.2 226.9 147.2 228.1 153.8 259.1 140.9 264.6 121.3 258 98.3 225.3 107.6 228 133.7 236.5 133"/><polygon class="cls-18" points="213.2 162.5 222.6 169.5 229.3 159.7 213.2 162.5"/><polygon class="cls-24" points="204.5 116.1 220.2 112.7 229.3 159.7 213.2 162.5 204.5 116.1"/><polygon class="cls-15" points="204.5 116.1 201 110.6 201.9 104.9 217.9 101.6 222.6 106.7 220.2 112.7 204.5 116.1"/><path class="cls-30" d="m201.9,104.9l-47.5,9.2,1.8,17.3,4.2,10.6,3.7,17.8,46.7-9.8-6.3-33.8-2.6-11.2Zm-34.1,18.1h0l25.5-5,4.6,23.8-25.6,5.2-4.5-24Z"/><path class="cls-30" d="m217.9,101.6l46.5-9.1,8.6,45.5-46.2,9.2-6.7-34.6-2.3-11Zm14.3,9.1h0l4.3,22.2,22.1-4-4.4-22.7-22,4.4Z"/><polygon class="cls-18" points="197.8 191.8 244.3 182.6 245 186.3 198.6 195.6 197.8 191.8"/><polygon class="cls-18" points="128 175.7 118.5 157.6 108.7 162 128 175.7"/><polygon class="cls-25" points="241.2 47.4 153.1 36.8 159.1 56.1 167.9 68.6 241.2 47.4"/><polygon class="cls-27" points="111.8 60.8 92.6 70 88 107.8 109.8 101.5 134.3 85 111.8 60.8"/><polygon class="cls-25" points="88 107.8 79.4 172.3 107.9 153.6 130.3 132.6 134.3 85 88 107.8"/><polygon class="cls-31" points="131.9 135.4 145.2 162.5 133.6 167.9 124.7 148.7 100.3 161.7 116.6 188.8 125.8 214.2 80.2 171.5 93 161.4 131.9 135.4"/><polygon class="cls-27" points="167.9 68.6 153.1 36.8 111.8 60.8 167.9 68.6"/><polygon class="cls-15" points="154.4 114.1 93 161.4 99.8 178 100.3 161.7 158.7 133.9 154.4 114.1"/><polygon class="cls-18" points="136.5 144.4 158.7 133.9 159.3 136.3 160.5 141.9 138.7 149.4 136.5 144.4"/><polygon class="cls-29" points="125.3 149.8 136.5 144.4 138.7 149.4 127 153.7 125.3 149.8"/><polygon class="cls-25" points="139.2 242 134.1 263.1 180.7 288.8 199.8 294.9 213.9 279.1 221.7 258.9 207.2 247.8 193.7 268.5 139.2 242"/><polygon class="cls-27" points="221.7 258.9 242.6 265.4 226.1 298.2 206.6 324.6 157.4 302.3 116 276.8 134.1 263.1 199.8 294.9 221.7 258.9"/><polygon class="cls-21" points="116 276.8 187.4 314.5 196.1 317.1 206.6 324.6 158.6 380.5 116.2 308.8 116 276.8"/><polygon class="cls-21" points="206.6 324.6 210.5 314 219.1 304 242.6 265.4 265.2 316.8 250.4 355.3 228.7 381.9 215.8 397.1 201.2 361 206.6 324.6"/><polygon class="cls-13" points="193.7 268.5 182.3 286.4 199.8 294.9 210.8 277.1 193.7 268.5"/><polygon class="cls-29" points="199.8 294.9 187.4 314.5 206.6 324.6 219.1 304 199.8 294.9"/><polygon class="cls-17" points="112.8 308.2 206.6 324.6 226.5 328.1 215.8 397.1 228.7 412.3 208.1 446.9 201.4 490.2 87.4 472.8 112.8 308.2"/><polygon class="cls-32" points="116 276.8 117.2 379.8 70.1 417 78.7 298.4 116 276.8"/><path class="cls-20" d="m242.6,265.4c14.5,32.8,29,65.5,43.5,98.3l-15.8,11.3c-6.6-6.5-13.3-13.1-19.9-19.6l-7.8-90Z"/><path class="cls-14" d="m191,129c0,2.7-2.3,4.8-4.8,4.8s-4.9-2.1-4.9-4.8,2.2-4.8,4.9-4.8,4.8,2.1,4.8,4.8Z"/><path class="cls-14" d="m250.3,118.1c0,2.7-2.1,4.8-4.8,4.8s-4.8-2.1-4.8-4.8,2.3-4.6,4.8-4.6,4.8,2.1,4.8,4.6Z"/></g><g class="cls-34"><polygon class="cls-19" points="275.6 119.6 174.3 92.7 198.6 -62.7 231.1 -96.3 275.6 119.6"/><polygon class="cls-5" points="179 7.8 180.5 -38.9 149.4 -42.3 147.5 .5 179 7.8"/><polygon class="cls-8" points="205.9 9.1 208.9 -37.6 180.5 -51.5 179 7.8 205.9 9.1"/><polygon class="cls-3" points="325.3 124.6 174.5 131.7 37.3 124.6 -9.6 108 12.9 97.7 295.3 112.5 325.3 124.6"/><polygon class="cls-8" points="145.3 111.2 134.3 118 134.6 124.3 192.9 124.6 192.7 118.2 145.3 111.2"/><path class="cls-4" d="m229.2,108.3l10.1,3v6.6c0,0-47.8.2-47.8.2l-6-2.3s1.2-9.1,1.6-9.1,42.1,1.6,42.1,1.6Z"/><polygon class="cls-12" points="201.8 73.3 205.2 80 239.3 111.2 175.7 111.2 161.9 86.4 201.8 73.3"/><polygon class="cls-10" points="159.2 70 140.2 83.8 134.3 118 192.7 118.2 175.8 92.7 159.2 70"/><polygon class="cls-8" points="133 -9.3 134 38.1 140.2 83.8 175.8 92.7 179 7.8 133 -9.3"/><polygon class="cls-5" points="212.4 .5 213.6 39.2 205.2 80 175.8 92.7 179 7.8 212.4 .5"/><polygon class="cls-7" points="182.4 -81.2 174.5 -68.8 197.1 42.9 251.6 18.2 190.3 -85.8 182.4 -81.2"/><polygon class="cls-11" points="197.1 42.9 260 28.9 256.1 16.2 251.2 7.9 209 27.1 197.1 42.9"/><polygon class="cls-9" points="219.8 -97.6 229.8 -93.3 256.1 16.2 209 27.1 187.2 -81 219.8 -97.6"/><path class="cls-11" d="m174.5-68.8l14.7-2.3-31.4,115.9-16.7-13.4s-11.8-34.5-12.6-35.1c-.8-.6-14.7-.1-28,.2l66.7-88.4,7.3,23.1Z"/><path class="cls-7" d="m157.8,44.9l-70.3-22.2,3.9-14.2,9.4-1.7c13.3-.3,27.5-.6,28-.2,1,.7,17.6,22.4,17.6,22.4l11.4,15.8Z"/><polygon class="cls-9" points="136 -104.4 115.2 -97.7 91.4 8.5 146.4 29.1 174.5 -68.8 136 -104.4"/><polygon class="cls-16" points="262.5 -108.4 295.3 112.5 275.6 119.6 250.8 -29.6 235.5 -106.9 244.6 -107.9 262.5 -108.4"/><polygon class="cls-33" points="226 -105.5 259.8 116 275.6 119.6 244.6 -107.7 244.6 -107.9 244.6 -107.9 226 -105.5"/><polygon class="cls-25" points="136.5 -215.6 153.6 -202.8 152.2 -104.7 130 82.9 110.3 -115.1 136.5 -215.6"/><polygon class="cls-23" points="137.9 -212.4 141.5 -107.7 111.8 89.5 95.7 -61.4 97.9 -207.6 137.9 -212.4"/><polygon class="cls-25" points="99.6 -95.1 86.6 -187.1 125 -193.5 127.3 -106.1 85.7 83.9 74.6 -17.3 99.1 -137.8 99.6 -95.1"/><polygon class="cls-33" points="152.2 -104.7 138.3 124.6 116.3 127.8 113.4 -105.4 127.3 -106.1 141.5 -107.7 152.2 -104.7"/><polygon class="cls-16" points="141.5 -107.7 116.3 127.8 96.9 117.6 49.1 22.3 84.4 -104.2 84.4 -104.2 108.7 -107.9 127.3 -106.1 141.5 -107.7"/><polygon class="cls-22" points="127.3 -106.1 96.9 117.6 61.2 118 61 67.5 89.6 -101.2 108.7 -107.9 127.3 -106.1"/><path class="cls-16" d="m45,38.2l-12.5,58.2,3.8,5.7,24.9,16,47.3-226h-14.1S52.8,6.9,52.8,6.9l-8,31.5.2-.2Z"/><polygon class="cls-33" points="84.4 -118.9 12.9 97.7 36.4 102 94.4 -107.9 84.4 -118.9"/><polygon class="cls-6" points="210.7 -105.3 226 -105.5 259.8 116 235.5 121.1 210.7 -105.3"/></g></svg>